<svg aria-hidden="true" style="position: absolute; width: 0; height: 0; overflow: hidden;" version="1.1" xmlns="http://www.w3.org/2000/svg" xmlns:xlink="http://www.w3.org/1999/xlink">
<defs>
<symbol id="icon-facebook" viewBox="0 0 32 32">
<path fill="#fff" style="fill: var(--color1, #fff); stroke: var(--color2, #ccc)" stroke="#ccc" stroke-linejoin="miter" stroke-linecap="butt" stroke-miterlimit="4" stroke-width="2.1333" d="M30.933 16c0 8.247-6.686 14.933-14.933 14.933s-14.933-6.686-14.933-14.933c0-8.247 6.686-14.933 14.933-14.933s14.933 6.686 14.933 14.933z"></path>
<path fill="#ccc" style="fill: var(--color2, #ccc)" d="M19.206 16.8l0.355-2.316h-2.223v-1.503c0-0.634 0.311-1.252 1.306-1.252h1.010v-1.972c0 0-0.917-0.156-1.794-0.156-1.831 0-3.027 1.11-3.027 3.118v1.766h-2.035v2.316h2.035v5.6h2.504v-5.6h1.867z"></path>
</symbol>
<symbol id="icon-google" viewBox="0 0 32 32">
<path fill="#fff" style="fill: var(--color1, #fff); stroke: var(--color2, #ccc)" stroke="#ccc" stroke-linejoin="miter" stroke-linecap="butt" stroke-miterlimit="4" stroke-width="2.1333" d="M30.933 16c0 8.247-6.686 14.933-14.933 14.933s-14.933-6.686-14.933-14.933c0-8.247 6.686-14.933 14.933-14.933s14.933 6.686 14.933 14.933z"></path>
<path fill="#ccc" style="fill: var(--color2, #ccc)" d="M17.775 15.083c0.061 0.323 0.105 0.646 0.105 1.065 0 3.658-2.453 6.252-6.147 6.252-3.536 0-6.4-2.864-6.4-6.4s2.864-6.4 6.4-6.4c1.729 0 3.169 0.629 4.287 1.676l-1.738 1.668c-0.472-0.454-1.301-0.987-2.55-0.987-2.183 0-3.964 1.807-3.964 4.043s1.781 4.043 3.964 4.043c2.532 0 3.484-1.825 3.632-2.759h-3.632v-2.2h6.042zM23.956 15.298v-1.858h-1.867v1.858h-1.858v1.867h1.858v1.858h1.867v-1.858h1.858v-1.867h-1.858z"></path>
</symbol>
<symbol id="icon-linkedin" viewBox="0 0 32 32">
<path fill="#fff" style="fill: var(--color1, #fff); stroke: var(--color2, #ccc)" stroke="#ccc" stroke-linejoin="miter" stroke-linecap="butt" stroke-miterlimit="4" stroke-width="2.1333" d="M30.933 16c0 8.247-6.686 14.933-14.933 14.933s-14.933-6.686-14.933-14.933c0-8.247 6.686-14.933 14.933-14.933s14.933 6.686 14.933 14.933z"></path>
<path fill="#ccc" style="fill: var(--color2, #ccc)" d="M12.465 22.4h-2.654v-8.546h2.654v8.546zM11.137 12.688c-0.849 0-1.537-0.703-1.537-1.551 0-0.408 0.162-0.799 0.45-1.087s0.679-0.45 1.087-0.45c0.408 0 0.799 0.162 1.087 0.45s0.45 0.679 0.45 1.087c0 0.849-0.689 1.551-1.537 1.551zM22.397 22.4h-2.648v-4.16c0-0.991-0.020-2.263-1.38-2.263-1.38 0-1.591 1.077-1.591 2.191v4.232h-2.651v-8.546h2.545v1.166h0.037c0.354-0.671 1.22-1.38 2.511-1.38 2.686 0 3.18 1.769 3.18 4.066v4.694h-0.003z"></path>
</symbol>
<symbol id="icon-twitter" viewBox="0 0 32 32">
<path fill="#fff" style="fill: var(--color1, #fff); stroke: var(--color2, #ccc)" stroke="#ccc" stroke-linejoin="miter" stroke-linecap="butt" stroke-miterlimit="4" stroke-width="2.1333" d="M30.933 16c0 8.247-6.686 14.933-14.933 14.933s-14.933-6.686-14.933-14.933c0-8.247 6.686-14.933 14.933-14.933s14.933 6.686 14.933 14.933z"></path>
<path fill="#ccc" style="fill: var(--color2, #ccc)" d="M22.673 12.79c0.010 0.14 0.010 0.28 0.010 0.42 0 4.27-3.25 9.19-9.19 9.19-1.83 0-3.53-0.53-4.96-1.45 0.26 0.030 0.51 0.040 0.78 0.040 1.51 0 2.9-0.51 4.010-1.38-1.42-0.030-2.61-0.96-3.020-2.24 0.2 0.030 0.4 0.050 0.61 0.050 0.29 0 0.58-0.040 0.85-0.11-1.48-0.3-2.59-1.6-2.59-3.17v-0.040c0.43 0.24 0.93 0.39 1.46 0.41-0.87-0.58-1.44-1.57-1.44-2.69 0-0.6 0.16-1.15 0.44-1.63 1.59 1.96 3.98 3.24 6.66 3.38-0.050-0.24-0.080-0.49-0.080-0.74 0-1.78 1.44-3.23 3.23-3.23 0.93 0 1.77 0.39 2.36 1.020 0.73-0.14 1.43-0.41 2.050-0.78-0.24 0.75-0.75 1.38-1.42 1.78 0.65-0.070 1.28-0.25 1.86-0.5-0.44 0.64-0.99 1.21-1.62 1.67z"></path>
</symbol>
</defs>
</svg>
